<?xml version="1.0" encoding="iso-8859-1"?>
<!-- Generator: Adobe Illustrator 19.0.0, SVG Export Plug-In . SVG Version: 6.00 Build 0)  -->
<svg version="1.1" id="Capa_1" xmlns="http://www.w3.org/2000/svg" xmlns:xlink="http://www.w3.org/1999/xlink" x="0px" y="0px"
	 viewBox="0 0 204.8 204.8" style="enable-background:new 0 0 204.8 204.8;" xml:space="preserve">
<g>
	<g>
		<g>
			<path d="M46.08,51.2c-24.468,0-44.373,19.907-44.373,44.373s19.905,44.373,44.373,44.373c24.469,0,44.373-19.907,44.373-44.373
				S70.548,51.2,46.08,51.2z M46.08,133.12c-20.704,0-37.547-16.843-37.547-37.547S25.376,58.027,46.08,58.027
				S83.627,74.87,83.627,95.573S66.784,133.12,46.08,133.12z"/>
			<path d="M46.08,64.853c-16.939,0-30.72,13.781-30.72,30.72s13.781,30.72,30.72,30.72s30.72-13.781,30.72-30.72
				S63.019,64.853,46.08,64.853z M46.08,119.467c-13.175,0-23.893-10.718-23.893-23.893S32.905,71.68,46.08,71.68
				s23.893,10.718,23.893,23.893S59.255,119.467,46.08,119.467z"/>
		</g>
	</g>
</g>
<g>
	<g>
		<g>
			<path d="M145.067,88.747c-31.997,0-58.027,26.03-58.027,58.027s26.03,58.027,58.027,58.027s58.027-26.03,58.027-58.027
				S177.063,88.747,145.067,88.747z M145.067,197.973c-28.232,0-51.2-22.968-51.2-51.2c0-28.232,22.968-51.2,51.2-51.2
				s51.2,22.968,51.2,51.2C196.267,175.005,173.298,197.973,145.067,197.973z"/>
			<path d="M145.067,102.4c-24.469,0-44.373,19.907-44.373,44.373c0,24.467,19.905,44.373,44.373,44.373
				s44.373-19.907,44.373-44.373C189.44,122.307,169.535,102.4,145.067,102.4z M145.067,184.32
				c-20.704,0-37.547-16.843-37.547-37.547s16.843-37.547,37.547-37.547s37.547,16.843,37.547,37.547S165.77,184.32,145.067,184.32z
				"/>
		</g>
	</g>
</g>
<g>
	<g>
		<path d="M145.067,0c-1.884,0-3.413,1.529-3.413,3.413v116.053c0,1.884,1.529,3.413,3.413,3.413s3.413-1.529,3.413-3.413V3.413
			C148.48,1.529,146.951,0,145.067,0z"/>
	</g>
</g>
<g>
	<g>
		<path d="M46.08,0c-1.884,0-3.413,1.529-3.413,3.413v75.093c0,1.884,1.529,3.413,3.413,3.413s3.413-1.529,3.413-3.413V3.413
			C49.493,1.529,47.964,0,46.08,0z"/>
	</g>
</g>
<g>
</g>
<g>
</g>
<g>
</g>
<g>
</g>
<g>
</g>
<g>
</g>
<g>
</g>
<g>
</g>
<g>
</g>
<g>
</g>
<g>
</g>
<g>
</g>
<g>
</g>
<g>
</g>
<g>
</g>
</svg>
